<svg width="199" height="301" viewBox="0 0 199 301" fill="none" xmlns="http://www.w3.org/2000/svg">
<path fill-rule="evenodd" clip-rule="evenodd" d="M18.9891 91.1237L19.0795 92.613L19.1171 94.1018L19.1023 95.5922L19.0356 97.0864L18.9178 98.5864L18.75 100.094L18.5338 101.612L18.2707 103.14L17.9629 104.683L17.6125 106.24L17.222 107.814L16.7941 109.405L16.3316 111.016L15.8373 112.647L15.314 114.3L14.7646 115.975L14.192 117.673L13.5991 119.396L12.9889 121.142L12.3644 122.914L11.7285 124.711L11.0842 126.534L10.4346 128.383L9.78245 130.257L9.13084 132.157L8.48262 134.083L7.84068 136.033L7.20784 138.008L6.58686 140.007L5.98042 142.03L5.39109 144.076L4.82145 146.144L4.27385 148.232L3.75059 150.342L3.25389 152.47L2.78572 154.617L2.348 156.781L1.94258 158.961L1.57103 161.157L1.23515 163.366L0.936351 165.588L0.67622 167.821L0.456127 170.064L0.277416 172.316L0.141338 174.576L0.0490526 176.841L0.00162827 179.111L1.07735e-05 181.384L0.0450852 183.658L0.137675 185.933L0.278422 188.206L0.467906 190.477L0.706614 192.744L0.994883 195.005L1.33305 197.259L1.72126 199.505L2.15962 201.742L2.64808 203.967L3.1865 206.181L3.77476 208.381L4.41252 210.568L5.09941 212.738L5.835 214.893L6.61875 217.03L7.45005 219.148L8.32829 221.248L9.25269 223.327L10.2225 225.386L11.2369 227.424L12.2949 229.44L13.3958 231.434L14.5384 233.405L15.7219 235.352L16.9454 237.276L18.2076 239.177L19.5076 241.053L20.8446 242.905L22.2172 244.733L23.6246 246.536L25.0658 248.315L26.5398 250.069L28.0455 251.799L29.582 253.504L31.1484 255.185L32.7438 256.841L34.3673 258.474L36.0181 260.082L37.6953 261.666L39.3984 263.225L41.1263 264.761L42.8785 266.273L44.6545 267.761L46.4534 269.225L48.2748 270.665L50.1182 272.08L51.983 273.472L53.8687 274.839L55.775 276.182L57.7014 277.5L59.6476 278.792L61.6131 280.06L63.5978 281.301L65.6012 282.516L67.623 283.704L69.663 284.865L71.7208 285.997L73.7962 287.101L75.889 288.176L77.9991 289.219L80.1264 290.23L82.2708 291.207L84.4322 292.148L86.6106 293.052L88.8058 293.914L91.0176 294.735L93.2459 295.51L95.4902 296.238L97.7501 296.915L100.025 297.54L102.315 298.109L104.618 298.62L106.934 299.07L109.263 299.457L111.602 299.779L113.95 300.032L116.307 300.215L118.671 300.326L121.04 300.362L123.413 300.322L125.787 300.205L128.162 300.009L130.535 299.732L132.904 299.375L135.267 298.935L137.623 298.413L139.968 297.808L142.301 297.12L144.619 296.35L146.921 295.497L149.204 294.562L151.467 293.546L153.706 292.45L155.92 291.275L158.107 290.023L160.265 288.695L162.392 287.293L164.485 285.819L166.545 284.277L168.567 282.667L170.552 280.993L172.498 279.258L174.403 277.466L176.267 275.618L178.087 273.718L179.864 271.771L181.597 269.78L183.285 267.748L184.927 265.679L186.524 263.577L188.075 261.446L189.581 259.291L191.041 257.115L192.456 254.922L193.827 252.717L195.154 250.503L196.439 248.284L197.682 246.065L198.884 243.85L200.048 241.642L201.174 239.444L202.264 237.262L203.32 235.098L204.344 232.956L205.337 230.838L206.302 228.749L207.242 226.69L208.157 224.666L209.052 222.678L209.927 220.728L210.786 218.82L211.63 216.954L212.463 215.134L213.287 213.359L214.104 211.632L214.916 209.953L215.727 208.324L216.538 206.745L217.353 205.217L218.172 203.739L218.998 202.311L219.834 200.934L220.681 199.607L221.54 198.328L222.415 197.098L223.306 195.914L224.215 194.776L225.143 193.682L226.091 192.631L227.061 191.62L228.052 190.647L229.066 189.711L230.103 188.809L231.164 187.939L232.248 187.097L233.355 186.283L234.485 185.492L235.637 184.722L236.811 183.971L238.006 183.235L239.221 182.511L240.454 181.798L241.705 181.092L242.972 180.39L244.253 179.689L245.547 178.988L246.852 178.284L248.167 177.575L249.489 176.857L250.818 176.13L252.15 175.392L253.485 174.64L254.821 173.873L256.156 173.09L257.488 172.29L258.817 171.471L260.14 170.633L261.458 169.775L262.768 168.897L264.07 167.998L265.363 167.078L266.646 166.137L267.919 165.175L269.179 164.19L270.426 163.184L271.66 162.155L272.879 161.105L274.082 160.032L275.269 158.938L276.44 157.821L277.592 156.683L278.725 155.523L279.839 154.341L280.932 153.137L282.004 151.913L283.054 150.667L284.081 149.401L285.084 148.114L286.063 146.807L287.016 145.481L287.943 144.135L288.843 142.769L289.715 141.386L290.558 139.983L291.371 138.564L292.154 137.126L292.905 135.672L293.624 134.202L294.309 132.716L294.96 131.215L295.576 129.699L296.155 128.169L296.698 126.626L297.202 125.071L297.668 123.504L298.094 121.926L298.479 120.337L298.822 118.74L299.124 117.134L299.382 115.52L299.596 113.9L299.765 112.274L299.89 110.643L299.968 109.009L300 107.373L299.985 105.735L299.923 104.097L299.813 102.46L299.656 100.825L299.45 99.193L299.197 97.5655L298.895 95.9437L298.546 94.3286L298.15 92.7216L297.706 91.1237L297.216 89.5361L296.68 87.96L296.098 86.3965L295.473 84.8467L294.804 83.3116L294.094 81.7922L293.342 80.2895L292.551 78.8043L291.723 77.3375L290.858 75.8898L289.959 74.4619L289.028 73.0543L288.066 71.6677L287.076 70.3024L286.058 68.9588L285.015 67.6373L283.948 66.3383L282.86 65.0619L281.75 63.8083L280.622 62.5777L279.475 61.3702L278.312 60.1859L277.135 59.0247L275.944 57.8865L274.741 56.7714L273.527 55.6791L272.304 54.6094L271.073 53.5621L269.836 52.5368L268.593 51.5332L267.347 50.5509L266.098 49.5893L264.848 48.648L263.599 47.7264L262.351 46.8239L261.105 45.9399L259.863 45.0737L258.626 44.2247L257.395 43.392L256.17 42.5749L254.954 41.7726L253.746 40.9841L252.549 40.2084L251.363 39.4445L250.19 38.6912L249.03 37.9473L247.884 37.2117L246.755 36.483L245.642 35.7598L244.547 35.0408L243.47 34.3244L242.414 33.6092L241.377 32.8935L240.362 32.1759L239.37 31.4545L238.4 30.7279L237.453 29.9942L236.53 29.2518L235.632 28.499L234.759 27.734L233.91 26.9551L233.087 26.1607L232.289 25.349L231.516 24.5184L230.768 23.6672L230.045 22.7939L229.347 21.8969L228.672 20.9747L228.021 20.026L227.393 19.0493L226.786 18.0433L226.201 17.007L225.635 15.9391L225.089 14.8386L224.56 13.7047L224.047 12.5366L223.55 11.3334L223.066 10.0948L222.595 8.8201L222.133 7.50906L221.681 6.16146L221.236 4.77717L220.795 3.35622L220.359 1.89877L219.924 0.405098L219.489 -1.12439L219.051 -2.68919L218.61 -4.28862L218.162 -5.92192L217.707 -7.5882L217.241 -9.28646L216.764 -11.0156L216.273 -12.7744L215.767 -14.5615L215.243 -16.3755L214.7 -18.2149L214.137 -20.0781L213.55 -21.9634L212.94 -23.8691L212.304 -25.7934L211.641 -27.7344L210.949 -29.6902L210.227 -31.6588L209.474 -33.6381L208.689 -35.6261L207.87 -37.6208L207.016 -39.6199L206.127 -41.6211L205.202 -43.6218L204.239 -45.6191L203.237 -47.61L202.197 -49.5914L201.116 -51.5598L199.994 -53.5117L198.831 -55.4435L197.627 -57.3516L196.38 -59.2319L195.091 -61.0808L193.76 -62.8942L192.386 -64.6681L190.971 -66.3986L189.514 -68.0817L188.017 -69.7133L186.479 -71.2894L184.902 -72.8061L183.287 -74.2595L181.635 -75.6455L179.947 -76.9603L178.225 -78.2002L176.47 -79.3612L174.686 -80.4397L172.872 -81.4319L171.032 -82.3342L169.168 -83.1433L167.282 -83.8564L165.377 -84.4708L163.456 -84.9844L161.522 -85.3954L159.576 -85.7022L157.623 -85.904L155.665 -86L153.706 -85.9901L151.748 -85.8746L149.794 -85.6539L147.848 -85.3292L145.912 -84.9018L143.989 -84.3736L142.082 -83.7468L140.194 -83.0239L138.327 -82.2078L136.483 -81.3018L134.664 -80.3094L132.873 -79.2347L131.112 -78.0816L129.382 -76.8547L127.684 -75.5586L126.02 -74.1982L124.39 -72.7786L122.795 -71.305L121.237 -69.7829L119.714 -68.2176L118.227 -66.6148L116.776 -64.9801L115.36 -63.3192L113.979 -61.6377L112.631 -59.9413L111.315 -58.2356L110.029 -56.526L108.773 -54.818L107.544 -53.1169L106.34 -51.4277L105.159 -49.7554L103.998 -48.1048L102.855 -46.4802L101.727 -44.8861L100.611 -43.3264L99.5045 -41.8049L98.4043 -40.3249L97.3075 -38.8895L96.2107 -37.5017L95.1108 -36.1638L94.0048 -34.8781L92.8895 -33.6461L91.7618 -32.4695L90.6186 -31.3493L89.457 -30.2862L88.2742 -29.2806L87.0673 -28.3325L85.8339 -27.4415L84.5714 -26.6071L83.2776 -25.8281L81.9502 -25.1033L80.5876 -24.431L79.1879 -23.8093L77.7498 -23.236L76.2719 -22.7085L74.7534 -22.2242L73.1934 -21.78L71.5915 -21.3728L69.9476 -20.9992L68.2616 -20.6556L66.534 -20.3382L64.7657 -20.0429L62.9579 -19.7653L61.1123 -19.5009L59.231 -19.2447L57.3164 -18.992L55.3716 -18.7376L53.3996 -18.4766L51.4041 -18.2038L49.3889 -17.9143L47.3583 -17.6032L45.3165 -17.2656L43.2684 -16.8971L41.2186 -16.4932L39.1722 -16.0498L37.1342 -15.5629L35.1098 -15.0289L33.1043 -14.4445L31.1228 -13.8069L29.1705 -13.1133L27.2525 -12.3616L25.3738 -11.5499L23.5391 -10.6769L21.753 -9.74131L20.02 -8.74268L18.3441 -7.6807L16.7291 -6.55549L15.1788 -5.36741L13.6965 -4.11719L12.2854 -2.80578L10.9485 -1.4344L9.68852 -0.00455996L8.50771 1.48197L7.40813 3.02323L6.39159 4.61701L5.45952 6.2609L4.61299 7.95233L3.85271 9.68849L3.17912 11.4665L2.59233 13.2833L2.09196 15.1358L1.67744 17.0207L1.34776 18.9347L1.10158 20.8745L0.937301 22.8366L0.85289 24.8176L0.846145 26.8143L0.914352 28.8232L1.0547 30.841L1.26405 32.8646L1.53896 34.8907L1.87578 36.9164L2.27061 38.9387L2.71947 40.9549L3.21794 42.9623L3.76176 44.9585L4.3463 46.9413L4.96687 48.9084L5.61882 50.858L6.29719 52.7885L6.99721 54.6983L7.71394 56.5861L8.44252 58.4509L9.17805 60.2919L9.91582 62.1084L10.6511 63.9001L11.3792 65.6667L12.0957 67.4084L12.7962 69.1252L13.4765 70.8178L14.1326 72.4867L14.7608 74.1327L15.3575 75.7569L15.9192 77.3605L16.443 78.9447L16.926 80.5111L17.3658 82.0612L17.7599 83.5969L18.1065 85.1198L18.4038 86.6319L18.6507 88.1352L18.846 89.6318L18.9891 91.1237Z" fill="url(#paint0_linear_57_92)"/>
<defs>
<linearGradient id="paint0_linear_57_92" x1="150" y1="-86" x2="150" y2="300.362" gradientUnits="userSpaceOnUse">
<stop offset="0.9999" stop-color="#4285F3"/>
<stop offset="1" stop-color="#3B12A8"/>
</linearGradient>
</defs>
</svg>
