<svg width="190" height="92" viewBox="0 0 190 92" fill="none" xmlns="http://www.w3.org/2000/svg">
<g clip-path="url(#clip0_45_1847)">
<path d="M190.001 50.0029C189.9 50.1141 189.749 50.2253 189.699 50.3682C188.29 55.0222 185.22 58.1831 180.843 60.1528C180.792 60.1686 180.742 60.1845 180.692 60.2004C180.44 60.2798 180.164 60.3434 179.912 60.4228C176.415 61.5505 172.943 61.5188 169.546 60.1369C168.112 59.5492 166.754 58.7232 165.395 57.9449C160.716 55.2764 156.061 52.5761 151.382 49.8917C149.117 48.5892 146.828 47.3026 144.564 46.0001C142.148 44.5864 139.733 43.1569 137.318 41.7591C130.676 37.9311 124.034 34.1189 117.417 30.275C115.555 29.1949 113.618 28.1624 111.958 26.8123C108.536 24.0485 106.7 20.3793 106.549 15.9635C106.347 10.3724 108.41 5.98838 112.687 2.97043C117.845 -0.682888 124.386 -0.762308 129.846 2.33507C137.821 6.862 145.746 11.5001 153.671 16.0747C160.791 20.1887 167.936 24.2867 175.056 28.4007C177.924 30.0526 180.843 31.641 183.635 33.42C186.68 35.3579 188.667 38.1693 189.699 41.6638C189.749 41.8067 189.9 41.9021 190.001 42.0291L190.001 50.0029Z" fill="#0E9C58"/>
<path d="M45.7892 46C48.9341 47.8266 52.0789 49.6533 55.2238 51.4641C60.6078 54.5773 65.9918 57.6747 71.3506 60.7721C73.2124 61.8363 75.0742 62.8688 76.8856 63.9965C82.2696 67.3639 84.861 73.9875 83.4772 80.1982C81.9929 86.7583 76.1811 91.6664 69.3631 91.9682C66.0421 92.1112 63.0482 91.174 60.2052 89.5062C53.0098 85.2969 45.7389 81.1671 38.5183 76.9896C31.5996 73.0027 24.706 69 17.8125 65.0131C14.2399 62.9482 10.6171 60.9627 7.09481 58.8342C3.77383 56.817 1.58501 53.8308 0.578655 50.0663C-0.578654 45.8094 2.23716e-07 41.7431 2.31462 37.9468C4.02542 35.1353 6.51615 33.1975 9.48491 31.8315C9.68618 31.7679 9.91261 31.7362 10.1139 31.6567C14.089 30.2907 17.9886 30.4337 21.7624 32.2603C23.7248 33.2134 25.5866 34.3729 27.4735 35.453C31.4738 37.7562 35.474 40.0911 39.4995 42.3943C41.5877 43.6015 43.701 44.7928 45.8144 45.9841L45.7892 46Z" fill="#4285F3"/>
<path d="M46.2164 45.7617C45.9648 45.9205 45.6377 45.9205 45.3861 45.7617C43.4237 44.6498 41.4613 43.5379 39.4989 42.4102C35.4987 40.107 31.4984 37.7721 27.473 35.4689C25.5861 34.3888 23.7243 33.2292 21.7619 32.2762C17.9881 30.4495 14.0633 30.3066 10.1133 31.6726C9.91208 31.7361 9.68565 31.7838 9.48438 31.8473C10.8933 31.0055 12.3022 30.1477 13.7111 29.3377C18.9944 26.2721 24.2778 23.2064 29.5612 20.1567C33.8633 17.6788 38.1655 15.2327 42.4425 12.7548C47.7259 9.70506 53.0093 6.63945 58.2926 3.58973C60.6324 2.25547 62.8967 0.746496 65.6139 0.28586C71.803 -0.730715 76.9857 1.09594 80.7847 6.0994C85.1875 11.897 84.8604 19.5531 80.1809 25.1443C78.8475 26.7486 77.1367 27.8922 75.3252 28.9247C71.5011 31.1008 67.7272 33.3087 63.9282 35.5006C59.3745 38.1215 54.8207 40.7424 50.2921 43.3632C48.9335 44.1574 47.5749 44.9675 46.2164 45.7617Z" fill="#E94336"/>
<path d="M144.186 46.2544C144.437 46.0955 144.764 46.0955 145.016 46.2544C147.155 47.4616 149.293 48.6846 151.432 49.9077C156.111 52.5921 160.766 55.2924 165.445 57.9609C166.804 58.7392 168.137 59.5652 169.596 60.1529C172.993 61.5189 176.465 61.5665 179.962 60.4388C180.238 60.3435 180.515 60.2799 180.817 60.2005C179.509 60.9947 178.201 61.8207 176.867 62.599C172.112 65.3469 167.332 68.079 162.577 70.8269C158.526 73.146 154.501 75.4809 150.45 77.8159C145.016 80.9609 139.582 84.1059 134.122 87.235C132.034 88.4263 129.996 89.713 127.807 90.7136C119.958 94.3352 110.347 90.2054 107.454 82.041C105.013 75.2109 107.63 67.5389 113.718 63.9174C117.995 61.36 122.348 58.9298 126.65 56.4519C131.632 53.5769 136.588 50.7019 141.544 47.8269C142.425 47.3186 143.305 46.7944 144.186 46.2861L144.186 46.2544Z" fill="#FABB09"/>
</g>
<defs>
<clipPath id="clip0_45_1847">
<rect width="190" height="92" fill="white"/>
</clipPath>
</defs>
</svg>
