<svg width="234" height="286" viewBox="0 0 234 286" fill="none" xmlns="http://www.w3.org/2000/svg">
<path fill-rule="evenodd" clip-rule="evenodd" d="M-57.0329 102.281L-57.3921 104.146L-57.7861 106.021L-58.2133 107.911L-58.6719 109.816L-59.1597 111.739L-59.674 113.681L-60.2123 115.644L-60.7716 117.63L-61.3491 119.639L-61.9418 121.673L-62.5466 123.733L-63.1606 125.82L-63.7804 127.935L-64.4028 130.078L-65.0243 132.25L-65.6416 134.45L-66.2511 136.679L-66.8492 138.937L-67.4323 141.223L-67.9966 143.537L-68.5385 145.878L-69.0542 148.245L-69.54 150.637L-69.9922 153.053L-70.4073 155.491L-70.7818 157.949L-71.1122 160.426L-71.3952 162.92L-71.6279 165.428L-71.8073 167.949L-71.9308 170.48L-71.9959 173.019L-72.0006 175.564L-71.9429 178.111L-71.8213 180.659L-71.6344 183.206L-71.3807 185.748L-71.0593 188.283L-70.6692 190.81L-70.2098 193.324L-69.6805 195.825L-69.0811 198.309L-68.4116 200.775L-67.672 203.219L-66.8628 205.64L-65.9843 208.036L-65.0375 210.405L-64.0232 212.745L-62.9425 215.054L-61.7967 217.331L-60.5871 219.575L-59.3154 221.783L-57.9833 223.955L-56.5925 226.091L-55.1449 228.189L-53.6427 230.249L-52.0877 232.27L-50.4822 234.252L-48.8283 236.195L-47.1282 238.099L-45.384 239.964L-43.598 241.791L-41.7721 243.579L-39.9087 245.329L-38.0097 247.043L-36.0771 248.72L-34.1128 250.361L-32.1186 251.968L-30.0962 253.54L-28.0472 255.08L-25.9731 256.586L-23.8754 258.061L-21.7551 259.505L-19.6136 260.919L-17.4517 262.303L-15.2704 263.658L-13.0705 264.985L-10.8525 266.283L-8.6172 267.553L-6.36483 268.795L-4.09584 270.008L-1.8105 271.193L0.491033 272.348L2.80872 273.474L5.1427 274.568L7.49326 275.628L9.8606 276.653L12.2451 277.64L14.647 278.585L17.0665 279.485L19.5038 280.338L21.9588 281.138L24.4313 281.882L26.9211 282.566L29.4276 283.186L31.95 283.737L34.4873 284.215L37.0383 284.617L39.6017 284.938L42.1756 285.174L44.7582 285.322L47.3473 285.378L49.9404 285.34L52.5351 285.205L55.1286 284.97L57.7179 284.634L60.3 284.196L62.8717 283.655L65.4297 283.01L67.9709 282.263L70.4918 281.414L72.9892 280.464L75.4599 279.414L77.9007 278.268L80.3087 277.026L82.6808 275.692L85.0142 274.268L87.3062 272.757L89.5543 271.164L91.7561 269.491L93.9096 267.743L96.0128 265.925L98.064 264.04L100.062 262.094L102.005 260.092L103.892 258.038L105.723 255.938L107.497 253.797L109.214 251.62L110.874 249.414L112.477 247.183L114.025 244.933L115.518 242.67L116.957 240.398L118.343 238.124L119.678 235.852L120.965 233.587L122.205 231.335L123.4 229.1L124.554 226.886L125.668 224.697L126.745 222.538L127.789 220.413L128.802 218.325L129.788 216.276L130.749 214.27L131.69 212.309L132.613 210.396L133.521 208.531L134.419 206.718L135.308 204.956L136.193 203.246L137.075 201.589L137.959 199.985L138.847 198.434L139.741 196.935L140.644 195.487L141.559 194.089L142.487 192.74L143.43 191.437L144.39 190.179L145.368 188.964L146.367 187.789L147.386 186.653L148.427 185.552L149.491 184.484L150.577 183.445L151.687 182.434L152.819 181.447L153.974 180.48L155.151 179.532L156.35 178.598L157.57 177.676L158.809 176.762L160.066 175.854L161.34 174.949L162.63 174.043L163.933 173.135L165.249 172.221L166.576 171.3L167.912 170.369L169.256 169.427L170.606 168.471L171.961 167.501L173.319 166.514L174.681 165.511L176.045 164.49L177.41 163.449L178.776 162.39L180.141 161.31L181.505 160.209L182.867 159.086L184.227 157.942L185.582 156.775L186.934 155.584L188.281 154.371L189.622 153.134L190.957 151.872L192.285 150.587L193.606 149.277L194.918 147.942L196.223 146.582L197.518 145.197L198.803 143.787L200.079 142.352L201.344 140.891L202.598 139.405L203.841 137.894L205.071 136.357L206.289 134.794L207.494 133.205L208.685 131.591L209.862 129.951L211.024 128.285L212.17 126.593L213.299 124.875L214.412 123.132L215.506 121.363L216.581 119.568L217.636 117.747L218.67 115.901L219.681 114.03L220.669 112.133L221.633 110.211L222.57 108.265L223.48 106.294L224.361 104.299L225.211 102.281L226.029 100.24L226.814 98.1765L227.563 96.0912L228.275 93.9849L228.949 91.8584L229.582 89.7126L230.172 87.5486L230.719 85.3673L231.22 83.1701L231.673 80.958L232.077 78.7325L232.429 76.4951L232.729 74.2471L232.973 71.9904L233.161 69.7266L233.291 67.4574L233.362 65.1849L233.371 62.9109L233.318 60.6374L233.2 58.3667L233.018 56.1009L232.769 53.8423L232.453 51.593L232.069 49.3554L231.615 47.1319L231.093 44.9249L230.5 42.7368L229.837 40.57L229.104 38.4269L228.3 36.3099L227.426 34.2216L226.482 32.1642L225.468 30.1402L224.384 28.152L223.232 26.2019L222.012 24.2921L220.726 22.4246L219.375 20.6013L217.96 18.8239L216.485 17.094L214.95 15.4129L213.36 13.7816L211.715 12.2011L210.02 10.672L208.277 9.19458L206.489 7.76901L204.661 6.39509L202.795 5.07235L200.895 3.80006L198.965 2.5772L197.008 1.40246L195.029 0.274287L193.031 -0.809171L191.017 -1.85L188.993 -2.85055L186.96 -3.8134L184.923 -4.74133L182.886 -5.63733L180.85 -6.50458L178.82 -7.34638L176.798 -8.16618L174.787 -8.96753L172.79 -9.75407L170.808 -10.5295L168.843 -11.2974L166.897 -12.0616L164.972 -12.8256L163.068 -13.593L161.186 -14.3673L159.327 -15.1518L157.491 -15.9495L155.677 -16.7635L153.885 -17.5964L152.114 -18.4507L150.364 -19.3284L148.634 -20.2316L146.92 -21.1616L145.223 -22.1196L143.54 -23.1064L141.868 -24.1223L140.207 -25.1674L138.552 -26.2413L136.902 -27.3431L135.254 -28.4719L133.607 -29.6267L131.956 -30.8063L130.301 -32.0094L128.639 -33.2344L126.967 -34.4795L125.285 -35.7429L123.588 -37.0224L121.876 -38.3158L120.147 -39.6204L118.398 -40.9336L116.628 -42.2524L114.836 -43.5738L113.02 -44.8946L111.179 -46.2113L109.311 -47.5205L107.416 -48.8186L105.492 -50.102L103.54 -51.3672L101.559 -52.6104L99.5481 -53.8283L97.508 -55.0172L95.4386 -56.1741L93.3402 -57.2957L91.2135 -58.3793L89.0589 -59.4223L86.8774 -60.4225L84.6697 -61.3778L82.437 -62.2859L80.1803 -63.1447L77.9008 -63.9522L75.5997 -64.7064L73.2785 -65.4052L70.9387 -66.0469L68.5817 -66.6297L66.2092 -67.1519L63.823 -67.612L61.4248 -68.0085L59.0164 -68.3403L56.5997 -68.6062L54.1765 -68.8053L51.749 -68.9367L49.319 -69L46.8884 -68.9947L44.4593 -68.9205L42.0335 -68.7773L39.6131 -68.5655L37.1999 -68.2851L34.7957 -67.9368L32.4023 -67.5211L30.0215 -67.039L27.6549 -66.4914L25.3042 -65.8794L22.9706 -65.2044L20.6558 -64.4677L18.3608 -63.6709L16.0871 -62.8157L13.8356 -61.9037L11.6073 -60.9369L9.40312 -59.9169L7.22383 -58.8459L5.07013 -57.7257L2.94256 -56.5583L0.841658 -55.3456L-1.23224 -54.0898L-3.27879 -52.7926L-5.29775 -51.4561L-7.28893 -50.082L-9.25221 -48.6721L-11.1875 -47.2282L-13.0948 -45.7518L-14.9741 -44.2445L-16.8254 -42.7078L-18.6486 -41.143L-20.4437 -39.5513L-22.2108 -37.9337L-23.9496 -36.2911L-25.6598 -34.6242L-27.3409 -32.9332L-28.9923 -31.2184L-30.6131 -29.4798L-32.2023 -27.7172L-33.7589 -25.9304L-35.2814 -24.1191L-36.7685 -22.2827L-38.2185 -20.421L-39.6297 -18.5335L-41.0002 -16.6197L-42.3283 -14.6793L-43.6119 -12.7121L-44.849 -10.7179L-46.0378 -8.69662L-47.1763 -6.64843L-48.2626 -4.57362L-49.2949 -2.47268L-50.2718 -0.346325L-51.1918 1.80455L-52.0536 3.97876L-52.8566 6.17495L-53.6001 8.39148L-54.2839 10.6265L-54.9082 12.8779L-55.4737 15.1434L-55.9814 17.4206L-56.4321 19.7071L-56.8274 22.0007L-57.1685 24.299L-57.4573 26.5996L-57.6954 28.9003L-57.885 31.1989L-58.0283 33.4932L-58.1276 35.7811L-58.1855 38.0606L-58.2048 40.3299L-58.1883 42.5871L-58.139 44.8306L-58.06 47.0588L-57.9546 49.2704L-57.8262 51.464L-57.678 53.6387L-57.5137 55.7934L-57.3368 57.9275L-57.1509 60.0404L-56.9595 62.1317L-56.7661 64.2011L-56.5744 66.2488L-56.3877 68.2748L-56.2096 70.2796L-56.0434 72.2637L-55.8921 74.2279L-55.759 76.173L-55.6469 78.1003L-55.5585 80.0109L-55.4965 81.9062L-55.4631 83.788L-55.4605 85.6578L-55.4904 87.5175L-55.5546 89.3691L-55.6542 91.2146L-55.7903 93.0561L-55.9637 94.8958L-56.1747 96.7359L-56.4235 98.5787L-56.7097 100.426L-57.0329 102.281Z" fill="#E94336"/>
</svg>
